/* XPM */
static char *_531813037493[] = {
/* columns rows colors chars-per-pixel */
"64 64 242 2 ",
"   c #0E5E9D",
".  c #155E9E",
"X  c #19649C",
"o  c #0D639E",
"O  c #23699E",
"+  c #296999",
"@  c #356B95",
"#  c #095FA6",
"$  c #135EA2",
"%  c #0C64A5",
"&  c #0564AB",
"*  c #0B65AB",
"=  c #0B69AD",
"-  c #0A69AB",
";  c #1365A4",
":  c #1A66A4",
">  c #1C6BA5",
",  c #1265AA",
"<  c #136BAC",
"1  c #1A6BAC",
"2  c #1568A5",
"3  c #0265B3",
"4  c #046BB4",
"5  c #0D6CB4",
"6  c #036DBC",
"7  c #0A6DBB",
"8  c #0564B4",
"9  c #136CB3",
"0  c #126DBB",
"q  c #186FBC",
"w  c #0371B5",
"e  c #0C71B7",
"r  c #0572BC",
"t  c #0B72BC",
"y  c #0E79BF",
"u  c #1272BC",
"i  c #1973B5",
"p  c #256CA3",
"a  c #2A6BA2",
"s  c #2168A8",
"d  c #2473AC",
"f  c #2A74AB",
"g  c #2A74A5",
"h  c #3175AB",
"j  c #3879AC",
"k  c #2776B5",
"l  c #3B7DB4",
"z  c #347BB5",
"x  c #427DAA",
"c  c #457FB1",
"v  c #016EC3",
"b  c #006EC9",
"n  c #0C6FC0",
"m  c #0373C4",
"M  c #0B73C3",
"N  c #0C79C4",
"B  c #0274CB",
"V  c #0976C9",
"C  c #0379CD",
"Z  c #0B7ACB",
"A  c #137AC4",
"S  c #1377C7",
"D  c #0076D3",
"F  c #0279D2",
"G  c #0A7CD3",
"H  c #2077C4",
"J  c #3C82B6",
"K  c #3882BC",
"L  c #2A83BF",
"P  c #4983AC",
"I  c #4888B8",
"U  c #578CB6",
"Y  c #5E92BC",
"T  c #5792BE",
"R  c #6696BB",
"E  c #618DB0",
"W  c #398ACA",
"Q  c #2C87CC",
"!  c #4589C2",
"~  c #468BC5",
"^  c #5594C3",
"/  c #5897C9",
"(  c #5298D0",
")  c #6599C7",
"_  c #639DD2",
"`  c #5DA4D4",
"'  c #68A1C8",
"]  c #7AA9CD",
"[  c #68A6D6",
"{  c #75AAD5",
"}  c #79B1DD",
"|  c #69ACE3",
" . c #7BB6E5",
".. c #71B5F3",
"X. c #7ACCFF",
"o. c #8E97A9",
"O. c #8E9CAC",
"+. c #8897A7",
"@. c #9B9CA7",
"#. c #939DAC",
"$. c #9B9EAC",
"%. c #939AA4",
"&. c #8C9DB4",
"*. c #8C9FB9",
"=. c #879BB3",
"-. c #939EB3",
";. c #9B9EB3",
":. c #929FB9",
">. c #9A9FBA",
",. c #A19EAB",
"<. c #95A2AE",
"1. c #9AA2AD",
"2. c #9DA5AA",
"3. c #8DA3B5",
"4. c #8DA5BC",
"5. c #8DA8BC",
"6. c #86A4BD",
"7. c #93A3B5",
"8. c #9AA3B4",
"9. c #95A8B7",
"0. c #9CA9B4",
"q. c #92A4BB",
"w. c #99A4BA",
"e. c #95A9BD",
"r. c #9BAABC",
"t. c #8FA1AD",
"y. c #A2A5B5",
"u. c #A1AABB",
"i. c #A5ABB6",
"p. c #ACB2BC",
"a. c #ABB4BA",
"s. c #BDBCBB",
"d. c #B8B9B9",
"f. c #ABAAAC",
"g. c #C3BCBA",
"h. c #BEC0BD",
"j. c #C3C1BD",
"k. c #C9C2BC",
"l. c #D3C6BE",
"z. c #8F9FC0",
"x. c #8DA4C3",
"c. c #8DA4CA",
"v. c #88A7C6",
"b. c #92A4C2",
"n. c #93AAC3",
"m. c #9AABC3",
"M. c #92A4C9",
"N. c #93ABCA",
"B. c #99A7C7",
"V. c #9CB4CD",
"C. c #96B1C8",
"Z. c #96ABD1",
"A. c #84B5DB",
"S. c #87B5D6",
"D. c #99B8D5",
"F. c #8BAFD1",
"G. c #A5B4C3",
"H. c #ACB4C4",
"J. c #AABCCB",
"K. c #A4B6CA",
"L. c #B4BBC8",
"P. c #A5BCD4",
"I. c #A6BED7",
"U. c #ABB6CC",
"Y. c #85BBE5",
"T. c #93BEE4",
"R. c #93C0DF",
"E. c #BBC3CC",
"W. c #BBC2C7",
"Q. c #AEC2D5",
"!. c #ABC4DC",
"~. c #ADC9DC",
"^. c #A5C3DA",
"/. c #B3C3D4",
"(. c #B3C3DA",
"). c #B8C6D9",
"_. c #8BC1EC",
"`. c #96C5EA",
"'. c #8BC5F3",
"]. c #93C5F2",
"[. c #9CCCF3",
"{. c #96CCF5",
"}. c #99D2F6",
"|. c #A9CBE6",
" X c #A3CBEC",
".X c #A7C7E5",
"XX c #B3CCE3",
"oX c #BBCCE2",
"OX c #B1CEE9",
"+X c #ACD2EA",
"@X c #B4D2EC",
"#X c #B8D3E9",
"$X c #A7CEF2",
"%X c #AED3F3",
"&X c #A3D3FB",
"*X c #ACD7FB",
"=X c #ACDAFD",
"-X c #A6D5F7",
";X c #B3DAF4",
":X c #B3D5F9",
">X c #B5DCFD",
",X c #BBDAF5",
"<X c #B5CFF2",
"1X c #B4E5FF",
"2X c #BBE6FE",
"3X c #AFE0FF",
"4X c #CACBCD",
"5X c #C5C7C9",
"6X c #DAD3CD",
"7X c #C7CCD5",
"8X c #CBD4D7",
"9X c #D6D6D8",
"0X c #D2C8C7",
"qX c #E4DBD6",
"wX c #DCE2DE",
"eX c #E6E4DE",
"rX c #CCDAE6",
"tX c #D5DBE6",
"yX c #C3DCF6",
"uX c #DDE4EB",
"iX c #C3E4FF",
"pX c #C3EEFF",
"aX c #CAEBFD",
"sX c #C8F4FF",
"dX c #D5FCFF",
"fX c #D8F6FF",
"gX c #DCE2F0",
"hX c #EDECEB",
"jX c #E7E6E6",
"kX c #F1EEEB",
"lX c #F9F9EE",
"zX c #E6EBFA",
"xX c #E4FFFF",
"cX c #ECFEFF",
"vX c #EAF3FC",
"bX c #F4F4F4",
"nX c #F6FAF4",
"mX c #FEFDF5",
"MX c #F4F6FB",
"NX c #F4FEFE",
"BX c #FDFEFD",
"VX c #FCF7F8",
/* pixels */
"mXBXVXBXBXNXzX(.q.9.q.q.q.4.q.q.;.;.w.q.b.x.c.x.6.5.<.2.8.8.4.6.>.8.7.7.q.q.>.>.q.4.v.6.b.q.7.7.q.q.q.q.q.q.q.7.u.rXNXBXBXNXBXBX",
"VXBXBXBXvX).w.w.7.q.q.7.q.q.q.q.>.8.q.x.x.4.q.4.5.5.3.<.#.9.n.x.q.q.4.3.7.7.>.B.q.4.4.x.q.q.7.7.q.q.q.q.q.q.q.q.q.7.H.8XBXBXMXBX",
"BXBXBXtXH.o.-.q.q.q.7.q.b.q.q.q.q.4.x.c.x.4.9.7.q.q.4.e.q.w.q.:.q.6.b.B.m.q.7.q.4.x.b.q.q.7.q.q.q.q.q.q.4.q.q.7.#.O.#.1.7XNXBXBX",
"BXmXzXH.o.-.G.&.q.q.q.q.q.q.q.q.q.4.v.v.4.7.<.1.q.x.x.x.6.q.q.q.x.v.x.z.:.q.7.3.q.q.q.q.8.q.q.4.q.w.q.q.q.q.q.q.e.r.7.$.<.E.BXBX",
"BXNXH.#.0.w.*.q.q.q.q.q.q.q.q.4.5.4.q.q.7.1.1.8.q.:.b.b.b.4.b.x.x.v.b.q.w.7.9.7.q.q.q.8.7.7.x.z.b.:.q.:.b.q.b.q.w.9.O.r.7.#.8XBX",
"NXrXo.#.w.q.q.B.q.q.q.q.q.q.b.q.5.5.7.7.1.<.7.q.q.b.b.q.7.q.*.x.6.4.q.9.7.7.3.q.b.q.:.q.3.q.x.c.b.q.q.q.b.q.q.q.*.q.q.&.7.8.u.vX",
"NXG.7.r.q.q.q.&.b.4.b.4.q.q.q.q.q.3.3.7.q.q.b.x.N.x.#.#.$.0.m.G.a.i.y.<.3.7.3.4.x.b.v.5.x.x.b.M.q.:.b.w.q.b.q.q.b.q.q.7.q.7.+.rX",
"zXO.7.4.:.q.*.B.4.q.q.4.q.q.q.q.q.7.5.4.q.q.q.b.*.6.m./.oXoX|.^.^.!.@X@X+XD.n.&.q.q.5.x.x.x.b.q.q.q.q.q.q.q.q.4.q.q.q.q.7.w.q.K.",
"/.7.q.4.b.:.z.x.q.x.4.q.q.q.q.q.:.:.n.*.7.y.,.@.0.~.,XT.) l d , 1 1 d ! [ [.yXJ.%.2.@.0.>.B.-.q.q.q.q.q.b.q.4.q.4.q.q.4.b.q.e.m.",
"/.:.q.q.q.q.b.q.4.q.q.4.q.q.q.q.w.:.6.4.m.o.,.H.yXS.j . , 5 r Z V v M 8 # a U !.rX0.1.-.B.>.-.7.q.q.b.q.q.q.q.4.4.q.4.4.q.q.q.m.",
"/.3.q.q.b.*.4.b.q.q.4.q.4.q.4.q.:.m.z.M.&.4.^.%XI k 5 7 t t 4 m v V v 6 M 9 ; a { -XD.*.:.>.w.3.q.q.q.q.q.q.q.q.q.4.q.q.q.4.q.m.",
"(.3.q.q.q.b.4.b.4.q.q.4.q.4.b.q.m.&.b.z.B.D.&Xl 9 8 C C r r M S 7 M Z m n n n 5 - ` =XN.-.0.q.q.4.q.4.q.q.q.q.q.q.b.x.q.n.4.x.m.",
"/.3.q.q.q.q.q.q.q.q.q.5.4.q.4.q.q.w.8.#.D.=Xg = v D b D B m M A ..# r m N Z v V m & [ ;X0.#.e.n.q.q.q.q.q.q.q.4.q.q.q.q.q.4.4.b.",
"/.3.q.q.q.q.*.q.q.q.3.7.q.4.4.q.q.7.;.G.@XT i r b B B D b n # ..sXW 5 6 m r b F F m o A.oX<.5.x.q.4.q.q.7.q.q.9.q.q.4.q.q.4.4.m.",
"/.3.q.q.q.q.q.q.9.7.7.5.5.q.q.4.e.3.<.~.Y.1 6 6 y w M V M q c aXcX X1 6 Z M N w B F 9 + #XQ.=.5.4.4.4.3.q.q.7.7.q.9.q.q.q.3.q.m.",
"/.7.q.7.q.4.7.q.4.4.4.4.q.q.4.q.q.9.0.;Xh 4 V C w e e 7 7 $  XNXNXcXT 9 6 r 4 N C F 6 1 E #X9.9.7.9.5.q.4.4.5.q.4.q.7.q.q.q.q.e.",
"(.-.8.-.q.7.7.q.q.4.4.4.4.q.q.q.7.8.Q.F.2 V m C C 6 M 7 5 I cXBXmXNX1XO 5 V Z v m C D n s :XH.,.7.7.3.5.6.4.5.5.6.q.q.7.q.7.q.m.",
"(.:.w.q.8.q.q.q.q.x.x.4.4.q.q.7.0.<.XXR = m m C B C m t < &XNXmXBXNXcX] % m m B r m D B , Y.L.,.8.q.q.4.x.4.x.5.6.n.4.q.q.4.q.b.",
"(.4.q.4.q.:.q.b.b.b.b.q.q.7.9.7.q.5.%Xh 0 m n m B b m & _ xXBXBXBXBXNXaXk 6 n m m m C r 5 ^ <X;.>.>.b.b.:.b.q.q.q.q.7.7.q.q.4.n.",
"!.6.4.4.b.b.q.b.b.z.q.q.q.7.7.7.4.F.[.p 7 V 6 r m m r d iXcXNXBXNXBXMXcX ., S v m m m M 7 z :Xq.z.B.b.>.B.:.>.q.8.7.w.q.q.4.4.N.",
"!.6.4.4.q.q.q.b.b.q.q.q.q.q.7.4.*.T.'.: M V 7 t 6 A - [ cXBXBXBXBXBXBXNXdXj u M M r r r w k -Xq.b.B.q.w.>.w.>.8.>.w.q.q.b.x.c.Z.",
"!.6.4.q.q.q.q.:.q.q.w.b.4.4.4.4.4.D.Y.; M m t u t 0 f pXBXmXBXBXBXVXBXBXcX`.% n t t r w w L [.n.z.:.q.q.w.7.8.9.-.w.>.:.b.c.c.c.",
"(.4.q.q.q.7.q.7.7.7.q.q.x.c.x.x.q.N.]., M B 7 u t < A.cXBXVXBXBXBXVXBXBXnXcX~ 0 0 t r w w W $Xq.4.5.5.5.q.7.7.7.q.q.q.z.b.x.x.B.",
"/.-.q.7.7.7.7.9.7.7.q.q.q.b.c.b.0.r. Xp v G 6 t = J dXBXBXBXVXBXVXBXBXmXmXNX&X1 0 r y r e K <X;.q.6.6.q.3.q.3.5.q.q.4.4.b.q.q.B.",
"L.-.w.q.q.4.4.q.9.7.q.e.q.q.b.w.$.1.@Xx 7 D n 7 X ].NXmXBXNXBXBXBXBXmXNXlXBXxX) , n n 7 * ` oX@.q.x.q.4.q.4.q.q.4.4.4.4.q.7.<.0.",
"E.8.7.q.q.6.5.4.4.e.7.#.0.w.:.8.,.1.#XY 7 D v = ^ xXNXmXBXBXBXBXBXVXBXmXmXNXNXiXk 8 V S * Y.H.@.w.*.:.q.q.q.q.*.6.x.4.6.q.7.9.0.",
"E.7.q.4.x.v.v.c.b.:.w.u.<.<.1.1.1.#.J.Y.t B V 1 S.vXBXBXBXBXBXBXVXBXmXmXNXnXBXNX[ 1 n 6 d =Xb.;.#.r.w.;.0.-.-.B.q.c.c.x.b.q.q.r.",
"Q.t.5.6.v.v.c.c.x.q.-.7.8.7.t.3.m.D.+X1XQ V & / aXa.uXBXBXBXBXBXBXBXBXmXnXmXnX7X.Xz 6 6 | 1X.XP.V.&.-.u.8.;.w.-.b.b.c.x.c.z.b.m.",
"Q.t.4.6.x.v.c.b.b.:.w.9.=.4.^.;X&X_.} | H 0 O pXcXbXd.7XmXBXNXBXVXVXBXmXNXjXh.wXNX[.* 0 ( [ } {.$X+XV.=.#.r.8.:.:.b.b.c.M.c.M.B.",
"/.3.q.4.x.b.q.q.w.w.*.6.D.=X].) h ;   * u ; S.xXNXmXNX4Xk.hXVXBXBXBXBXBX9Xh.jXBXBXdXl 1 < X 2 > I { *X,XV.&.-.0.w.b.x.x.b.c.b.M.",
"/.:.q.7.q.7.7.8.#.7.e..X=X_ . , 9 0 n S 5 h fXBXcXBXBXmXqXd.jXVXBXVXMX4X4XmXmXBXNXcX$Xp e 4 N 4 =   f { $XI.7.0.7.q.7.3.4.4.q.n.",
"(.7.q.q.q.7.1.1.0.3.+X{.h   H 7 n b G v < T.NXmXBXNXBXmXBXhXd.9XVXhXg.9XBXBXVXBXNXNXxXR < N 6 C M M 5 ; ^ $XXX+.<.8.5.3.5.4.7.r.",
"(.3.q.4.n.6.8.2.9.|.'.1 * t M m V r C 4 J dXVXmXVXNXNXmXVXBXVX4Xp.5XkXmXBXBXBXNXBXNXcX;X+ < C F m m B v 5 J %XQ.#.8.e.6.v.v.q.0.",
"J.q.q.*.b.q.$.<.^.}.> u M v Z m b m r - }.cXmXmXVXBXBXNXNXBXMX5X5Xd.eXmXmXBXBXBXcXBXBXcX' > m B B C D b m < P #XU.o.5.v.v.v.9.0.",
"!.q.e.3.b.w.@.u.;XI % t r C v m m A o ^ xXNXmXmXBXBXBXNXmXeXg.jXBXjXj.6XmXmXnXBXmXmXnXNXfX+ u M V 6 B B b 7 . { @X7.q.e.x.x.-.r.",
"(.4.4.x.q.#.f.oX{ % u r m m m m r 9 + ;XcXBXBXVXBXVXNXBX9Xj.kXBXBXBXVXk.g.nXmXmXlXmXmXBXcXA.1 0 t r m G v S 0 > `.^.7.e.4.3.9.w.",
"(.3.4.n.q.o.p.#Xd t 6 M m C m m M % ' nXBXBXBXNXBXBXbXW.8XBXBXBXNXBXBXBX9Xh.wXmXmXmXmXBXcXdXl 1 e A m m C m M = T ;X*.8.9.3.q.m.",
"/.3.5.4.4.7./.F.* V t m b F v M 7 f sXNXmXmXNXNXBXtXs.jXNXNXBXBXBXBXBXBXmXjXW.4XBXVXVXBXNXxX[.X 0 r m m V v b t p =XB.#.9.3.q.N.",
"E.7.n.6.4.n.XXY 7 B r N m 6 G t ; } cXnXmXmXBXNX9X5XhXmXmXBXBXBXBXBXmXBXVXBXBX5X5XkXmXBXNXcXxXP < 6 C m r t V 6 2 X.^.-.q.3.6.m.",
"E.<.q.4.4.x.:Xj 7 V r r C C m 5 l dXNXmXmXBXvXL.9XVXmXmXBXBXVXBXmXBXmXBXBXBXBXNX9Xg.jXmXBXBXcX=X> N C B 7 7 M t 2 T OXt.5.5.x.N.",
"L.7.q.q.4.N.}.p 7 m M m 6 C t ; {.xXNXnXBXwXW.uXBXBXmXmXmXBXBXBXBXBXmXBXBXBXBXBXBXjXg.6XBXBXNXxX/ - F B N 4 t t e ~ +Xt.5.4.x.N.",
"/.7.7.7.7.C.].d t v m C m 4 * P xXNXNXnX8X5XMXBXBXVXmXmXmXmXBXNXBXBXBXBXBXBXBXBXBXBXVX5Xj.bXBXcX2Xd 6 F 6 A N 6 6 I +X<.7.q.4.C.",
"~.3.7.7.<.V.`.d 5 r F b Z i X >XNXmXhXE.8XBXVXVXBXBXmXmXmXBXBXBXBXBXBXBXBXBXBXBXnXBXVXmX6Xg.hXBXcX] & m G 6 b m 7 K OXt.w.q.3.N.",
"~.4.9.7.<.m. X+ 0 m B B M ; Y cXmXqXs.uXBXBXBXBXBXBXBXmXBXBXNXcXNXNXNXBXNXNXBXmXBXmXBXBXVXjXs.9XNXdXz 7 b C B C q ! XX%.w.w.4.5.",
"~.3.q.9.7.q.@Xj < m D B * O sXNX0Xl.bXBXNXNXBXBXBXBXNXNXNXNXcXcXxXxXcXcXNXNXNXNXNXvXNXBXMXBXVXj.5XcX].* Z B B m < ) XX#.8.w.q.b.",
"Q.7.q.q.x.6.#XE < 6 B M d  .aXL.8XBXNXcXcXcXcXcXcXfXdXiX;X`.] ) U U R ] R.$XiXaXxXxXxXcXcXNXBXBX8XG.sXI & G B V 2 } !.8.7.7.q.n.",
"/.#.q.5.v.6./.C.; M G r d &XyXfXcXdXdX1X-X$X ._ ^ ! z > ; % , 5 5 - & * 2 > d z ! ( [  .}.1XsXdXcXxX^._.i M C 3 h  XV.q.7.3.x.M.",
"/.7.q.6.v.v.m.@Xf 7 6 6 (  .A.F./ I j g X . > , 9 5 7 4 r M m B v 6 m V r 6 7 0 5 5 * , 2 X h P U ] S.[ k M v = U 2Xq.7.9.e.c.M.",
"(.q.7.7.r.-.9.OX[ < M C v t # , = 5 5 5 e e 7 7 7 M 4 M M 6 V m y w r y r r m M r t r t 7 6 4 5 ; 1 % 6 G b n 1 &XN.7.y.8.3.x.F.",
"^.q.q.-.y.#.#.V.=Xj * S b B V C m m m m M m m V V v Z 6 Z 7 & W X.d % 7 m C m B m m t t M V B B M V V b V M 1 _ $XC.8.1.<.q.x.F.",
"^.4.q.7.w.8.-.q.|.`.+ > 7 n D b C m m m r m m B D D F B 8 1 h {.1X] + ; V m D b m 6 0 0 7 b B D B m m r 9 s j >XD.q.;.8.q.q.x.c.",
"~.4.e.q.:.B.b.:.6.@XT.@ > 5 F F C C C m m m C B D D b Z , a $X.Xr.yXR : u b F F B M M 0 n m B F F C r < a @ %X^.:.:.q.w.q.b.b.c.",
"~.3.q.7.*.b.b.q.7.0.).^.x X & B B C m m r r m V b D n , j  XI.i.$.:.iX} . t b b F B v m m r C C C 6 % O P ,X/.O.0.8.m.b.z.b.z.B.",
"Q.O.9.q.b.z.b.q.-.r.9.(.+XT d 4 r w 6 t u t 7 0 H , s ^ :X(.$.@.i.#.M.:X'.l 1 7 M m m C N r w w 5 % f { ,XK.o.0.-.q.b.x.b.b.q.B.",
"/.3.9.q.q.b.b.b.q.7.#.r.m.>X'.^ a > ; % * * ; s + R .XyXV.:.-.r.<.8.8.O.~.pXS.P > - - 4 & % X O l [ :X%XN.7.u.:.&.:.b.4.n.e.*.B.",
"L.7.0.:.q.b.x.x.b.q.q.3.e.*..X:X-X_.} [ [ [  .T.<X<XU.:.>.:.b.q.q.9.1.0.%.2.XX;X[._.| [ [ { A.`.:X<XZ.b.q.n.q.q.n.b.q.6.6.9.5.m.",
"tX#.7.q.4.n.4.5.5.5.5.q.9.q.8.-.Z.I..XXXoX).(.P.m.b.6.*.x.4.4.4.c.b.q.q.;.>.8.8.K.^.!.XXXX~./.K.8.:.w.q.:.b.x.b.4.b.b.5.e.3.t.V.",
"BX-.q.b.4.6.3.q.5.3.5.5.q.7.;.;.&.-.:.#.@.$.$.$.e.q.6.v.x.c.4.4.x.c.b.q.w.>.;.1.#.$.$.#.#.$.#.$.8.8.8.q.q.x.b.x.c.=.B.&.&.r.9.G.",
"MXL.=.b.*.x.e.t.<.t.5.5.b.>.y.>.r.B.w.8.-.;.8.w.7.q.5.e.5.4.4.4.4.4.4.4.4.q.q.q.q.w.w.w.q.m.b.b.q.7.7.q.q.q.q.b.4.4.n.q.w.-.1.uX",
"VXvX7.q.e.4.<.7.<.9.3.5.q.q.>.>.:.q.q.q.q.q.q.:.7.q.7.q.q.7.7.7.7.4.4.4.4.4.4.4.4.q.q.b.q.b.b.z.4.4.q.7.7.7.q.q.q.b.&.b.u.o.H.BX",
"BXNXrX+.:.q.7.q.7.7.7.4.q.b.q.b.b.x.x.5.6.x.b.b.4.q.q.7.7.8.8.<.1.7.7.7.7.9.5.4.5.5.5.6.5.4.4.x.x.5.4.4.7.7.q.7.w.q.e.q.o.p.zXBX",
"NXBXNXL.;.;.>.7.q.q.4.q.4.4.q.4.q.5.x.x.c.x.x.x.x.q.4.7.q.8.8.;.7.8.8.7.7.7.4.3.q.6.5.5.4.4.5.6.4.x.q.q.8.q.7.q.q.&.9.O.u.gXBXBX",
"NXBXVXBX7Xy.>.b.M.c.x.q.3.3.4.7.7.7.q.n.e.4.*.4.q.q.q.-.:.b.z.b.b.q.b.b.x.b.q.4.q.7.q.e.e.4.q.b.:.b.q.q.:.b.q.q.e.-.O.a.gXNXNXNX",
"nXBXmXmXVXMXL.Z.F.c.v.5.q.5.3.3.9.<.<.7.q.4.q.m.q.q.w.q.b.c.c.c.x.b.x.b.c.v.b.q.w.7.7.7.q.q.q.b.w.w.>.q.q.b.q.q.q.J.rXNXNXNXNXBX"
};
