/* XPM */
static char *_531813027311[] = {
/* columns rows colors chars-per-pixel */
"32 32 228 2 ",
"   c #0A5A99",
".  c #0B619E",
"X  c #1A6293",
"o  c #1D659D",
"O  c #12609E",
"+  c #276A99",
"@  c #075EA3",
"#  c #125FA3",
"$  c #0C64A4",
"%  c #0B63AB",
"&  c #0C6BAC",
"*  c #0668AB",
"=  c #1464A4",
"-  c #1C66A2",
";  c #1469A5",
":  c #1364AC",
">  c #1B63AA",
",  c #136AAB",
"<  c #1C6CA9",
"1  c #1B6EA6",
"2  c #1E71A7",
"3  c #046BB4",
"4  c #0D6DB4",
"5  c #026EBD",
"6  c #0A6EBC",
"7  c #0063B7",
"8  c #126DB3",
"9  c #126EBB",
"0  c #1669B1",
"q  c #0371BC",
"w  c #0B72BC",
"e  c #0F70B4",
"r  c #1372B5",
"t  c #1C73B2",
"y  c #1471BE",
"u  c #1C73BB",
"i  c #246EA3",
"p  c #276CA7",
"a  c #2A73AB",
"s  c #2770A5",
"d  c #3271AE",
"f  c #3578AD",
"g  c #3773A4",
"h  c #236EB2",
"j  c #2375B7",
"k  c #2A7AB9",
"l  c #327AB5",
"z  c #387EB7",
"x  c #347CBA",
"c  c #397FBA",
"v  c #43779C",
"b  c #427EB5",
"n  c #026DC2",
"m  c #0474C5",
"M  c #0B74C1",
"N  c #0976C7",
"B  c #1677C6",
"V  c #047AD2",
"C  c #287EC7",
"Z  c #3380B2",
"A  c #3D82B4",
"S  c #3886BF",
"D  c #4C85B6",
"F  c #4885B3",
"G  c #5688B7",
"H  c #5992B8",
"J  c #6394BD",
"K  c #669EB7",
"L  c #2D89CC",
"P  c #3483C2",
"I  c #3D8CCC",
"U  c #398DD3",
"Y  c #4789C1",
"T  c #528FC8",
"R  c #4790C5",
"E  c #5295CA",
"W  c #5896C8",
"Q  c #5E9FD7",
"!  c #4792D5",
"~  c #629DCE",
"^  c #6999C8",
"/  c #739FC2",
"(  c #5EA2CF",
")  c #57A1D4",
"_  c #69A1CB",
"`  c #72A5CA",
"'  c #68A8D8",
"]  c #76AAD3",
"[  c #79ABD6",
"{  c #7DABDC",
"}  c #7AB3DE",
"|  c #5FA3E2",
" . c #4BA2E7",
".. c #6BB1E5",
"X. c #7DB2E2",
"o. c #61B9F8",
"O. c #8D9BAC",
"+. c #8598A7",
"@. c #949EAE",
"#. c #999DAB",
"$. c #829BB3",
"%. c #8D9DB4",
"&. c #8C9FBA",
"*. c #839AB8",
"=. c #939DB3",
"-. c #9A9FB2",
";. c #939EBC",
":. c #999FBC",
">. c #8FA1AF",
",. c #93A3AE",
"<. c #99A4AE",
"1. c #96A1A7",
"2. c #86A2B6",
"3. c #8DA4B6",
"4. c #86A2BD",
"5. c #8CA3BC",
"6. c #8CA9BC",
"7. c #94A3B5",
"8. c #9BA3B5",
"9. c #92AAB7",
"0. c #9DA9B5",
"q. c #93A4BC",
"w. c #9AA5BB",
"e. c #93A9BD",
"r. c #9AAABD",
"t. c #96B2BE",
"y. c #A2A8BA",
"u. c #A5B2BC",
"i. c #A9B1B4",
"p. c #CCC4B9",
"a. c #84A2C2",
"s. c #8DA5C3",
"d. c #8CAAC4",
"f. c #8CACCB",
"g. c #83AACC",
"h. c #93A5C2",
"j. c #9AA5C3",
"k. c #94ABC3",
"l. c #9BABC3",
"z. c #93ACCC",
"x. c #99ADCD",
"c. c #99A7CA",
"v. c #9AB2C6",
"b. c #9BB2CD",
"n. c #91B0CA",
"m. c #83AFD4",
"M. c #8DAED3",
"N. c #9CAFD0",
"B. c #85B3DB",
"V. c #8CB3DB",
"C. c #8AB5D7",
"Z. c #94B5D4",
"A. c #9CB3D4",
"S. c #93BAD5",
"D. c #9BB9D4",
"F. c #94B6DB",
"G. c #95BADA",
"H. c #9BBADB",
"J. c #AAAFC4",
"K. c #A3A9C2",
"L. c #A3B2C5",
"P. c #A2B3CD",
"I. c #ABB3CB",
"U. c #AFB8C3",
"Y. c #B0BDCE",
"T. c #A0B6D4",
"R. c #8ABAE3",
"E. c #84B4E3",
"W. c #94BCE1",
"Q. c #9ABBE4",
"!. c #90B8E6",
"~. c #A0BEE2",
"^. c #9CC2DE",
"/. c #91C0DE",
"(. c #A3C0DD",
"). c #BCC9D9",
"_. c #B8C1CA",
"`. c #8EC4E6",
"'. c #99C0E5",
"]. c #92C5E9",
"[. c #85C6FA",
"{. c #94C4F1",
"}. c #9CC9F0",
"|. c #9FD6FD",
" X c #9FD8FF",
".X c #A4CEF4",
"XX c #A7D6FB",
"oX c #B9DCF7",
"OX c #A8CAE6",
"+X c #A9E2FF",
"@X c #B9E9FF",
"#X c #BBF1FF",
"$X c #C2CACC",
"%X c #CCD0D1",
"&X c #D6DCDD",
"*X c #DBDEDD",
"=X c #D9DDD5",
"-X c #C8CAD6",
";X c #E1DAD2",
":X c #DCE1DB",
">X c #E8E1D9",
",X c #DDDCE4",
"<X c #D2D8E6",
"1X c #C6D7E1",
"2X c #DCE3E8",
"3X c #C7E7FF",
"4X c #DBECFA",
"5X c #C3FEFF",
"6X c #CFF7FF",
"7X c #DDFEFF",
"8X c #D5F5FF",
"9X c #E5E8E3",
"0X c #E3E4EC",
"qX c #E5E8E8",
"wX c #F7EEE5",
"eX c #EBF1EF",
"rX c #F3F2EE",
"tX c #E3EFFC",
"yX c #E8EEFA",
"uX c #F0EEF1",
"iX c #EDF6FF",
"pX c #E4FEFF",
"aX c #ECFFFF",
"sX c #EBF4F1",
"dX c #FBFAF5",
"fX c #F3FEFF",
"gX c #FCFEFE",
"hX c #F5F7F7",
/* pixels */
"gXgXfX).1.<.3.3.d.5.7.<.q.e.%.9.3.3.8.#.y.;.h.3.<.,.9.7.y.0XgXgX",
"gX2Xu.7.0.,.3.6.a.h.8.1.7.5.&.k.6.k.8.-.=.;.;.q.9.>.q.q.q.w.-XgX",
"gXU.O.%.7.q.s.s.f.&.#.y.w.q.s.&.$.e.5.&.j.j.e.s.3.6.3.s.a.$.8.,X",
"<X=.e.k.%.w.s.s.a.j.8.=.%.z.Q.V.F.Z.Q.M.s.$.&.s.5.d.6.4.z.s.=.J.",
"P.j.a.s.j.=.h.q.q.&.=.l.Q.{ E c S f ~ R.V.f.N.&.e.5.3.3.e.5.&.x.",
"A.a.a.d.q.7.w.=.r.%.b.C.b i % r @ j O p ~ W.a.q.q.7.9.7.%.7.s.z.",
"T.$.n.k.%.8.=.7.7.6.V.R > 8 M B  ., 8 r t W ~.=.-.-.r.3.7.j.h.s.",
"v.k.2.%.9.7.9.9.9.S.W $ w 6 * o.5Xl 4 5 M < V.l.-.8.q.3.q.h.;.c.",
"u.<.7.9.=.3.5.4.6.].< q m 4 Z 5XpX'.; m w , W F.s.;.q.3.d.s.h.;.",
"U.@.@.8.7.e.d.f.f.` r m B . `.pXgXpXD * w r p R.f.j.q.5.2.5.q.K.",
"J.=.7.w.7.q.a.a.x./ u n : F pXgXgXfX|.1 e 8 l E.a.&.=.8.q.q.q.q.",
"N.q.q.q.;.w.c.h.z.^ : 9 p XXgXdXdXfX7XE , & a X.M.e.;.8.8.q.q.q.",
"T.h.s.h.=.w.e.a.s.V.a # J fXgXgXgXfXpX@X2 < z V.5.7.;.h.8.=.q.q.",
"N.a.s.z.8.=.5.f.Z.{.C - OXiXgXgXgXgXaX7X~ o ' ].f.h.h.;.q.w.e.3.",
"L.9.5.5.=.r.Z.G.] E j ..pX&X2XgXgXdXuX2X3Xv A ) } C.N.:.5.s.f.6.",
"J.q.s.4.e.D._ g - o p #XiXdX:X9XdX>X>XgXfXS.X ; - T V.A.h.4.6.d.",
"I.&.d.d.G.J , 6 9 = B.aXgXdXdX=Xp.>XdXgXfX8XA r 6 9 h E.x.r.&.k.",
"J.=.5.C.] i M n 6 z 7XgXgXhX9X>XwX;XqXfXfXaX|.; n m y A G.3.3.e.",
"i.<.9./.Z & m N = }.fXdXgX9X:XhXgXgX0X0XdXgXfXG 3 V 5 $ ` n.2.9.",
"u.,.t.C.; N m e G pXfXsX&XsXgXdXgXhXgX0X:XrXdXoXt m n r F G.2.9.",
"b.6.k._ r q w ; oXfXtX2XiXgXgXgXgXgXgXgXeX*X9XfX' * w 8 a V.k.9.",
"D.5.L.K , 3 r ( 7X&X4XaXaXfXgXfXaXaXaXfXfXaX%X4X@Xl 4 8 d E.f.9.",
"P.%.K.M.= 9 k XXtXgXfXaX7X7X4X@XXX+X@X7XpXpXfX8X6X' 8 8 Y !.a.6.",
"L.9.7.G.x 8 ! |.oXT.m._ H F g + X o d F H K g..XXX[.C @ W Q.a.k.",
"v.9.3.G.Q $ C u 1 = 4 w 3 3 , 2 x p > : ; = # > # C e 2 G.k.6.2.",
"L.O.j.a.{.E   4 q q 5 m m * t ) !.C > u q 5 B 9 9 @ s ' D.3.6.6.",
"I.8.;.q.5.S.H i e q 3 3 & a ^ W.M.!.T > M m 7 6 % x _ S.7.=.9.2.",
"K.w.q.=.y.q.T.[ R S S I W B.H.d.h.k.F.[ R L U I | X.Q.r.=.7.e.v.",
"Y.q.&.h.;.:.;.x.F.Q.Q.Z.H.x.&.s.4.6.9.l.^.B.m.'.Q.d.7.=.;.h.%.j.",
"iXw.k.a.j.:.K.=.h.q.%.=.e.q.;.;.d.f.,.@.9.r.6.3.%.q.=.w.j.c.*.).",
"dX$X+.6.h.2.;.w.3.3.k.k.&.&.j.;.q.%.7.q.@.@.r.q.%.l.5.q.@.@.y.yX",
"dXgX1Xv.6.k.q.2.9.6.5.2.j.h.:.j.;.q.q.q.8.8.q.3.q.3.h.q.0.Y.yXgX"
};
